HIERARCHY
ROOT Hips
{
	OFFSET 0.000000 0.000000 0.000000
	CHANNELS 6 Xposition Yposition Zposition Zrotation Xrotation Yrotation
	JOINT Spine
	{
		OFFSET 0.000000 -0.000002 14.894144
		CHANNELS 6 Xposition Yposition Zposition Zrotation Xrotation Yrotation
		JOINT Spine1
		{
			OFFSET 0.000000 -0.000007 40.644821
			CHANNELS 6 Xposition Yposition Zposition Zrotation Xrotation Yrotation
			JOINT Neck
			{
				OFFSET 0.000000 -0.000007 44.277538
				CHANNELS 6 Xposition Yposition Zposition Zrotation Xrotation Yrotation
				JOINT Head
				{
					OFFSET 0.000000 -3.632723 28.153564
					CHANNELS 6 Xposition Yposition Zposition Zrotation Xrotation Yrotation
					End Site
					{
						OFFSET 0.000000 -0.000006 36.327175
					}
				}
			}
			JOINT LeftShoulder
			{
				OFFSET 7.315346 0.960243 35.751842
				CHANNELS 6 Xposition Yposition Zposition Zrotation Xrotation Yrotation
				JOINT LeftArm
				{
					OFFSET 26.103193 0.000000 0.000000
					CHANNELS 6 Xposition Yposition Zposition Zrotation Xrotation Yrotation
					JOINT LeftForeArm
					{
						OFFSET 51.184212 0.000000 0.000000
						CHANNELS 6 Xposition Yposition Zposition Zrotation Xrotation Yrotation
						JOINT LeftHand
						{
							OFFSET 47.569092 0.000000 0.000000
							CHANNELS 6 Xposition Yposition Zposition Zrotation Xrotation Yrotation
							End Site
							{
								OFFSET 27.245386 0.000000 0.000000
							}
						}
					}
				}
			}
			JOINT RightShoulder
			{
				OFFSET -7.214415 0.960243 35.751842
				CHANNELS 6 Xposition Yposition Zposition Zrotation Xrotation Yrotation
				JOINT RightArm
				{
					OFFSET -26.103186 0.000000 0.000000
					CHANNELS 6 Xposition Yposition Zposition Zrotation Xrotation Yrotation
					JOINT RightForeArm
					{
						OFFSET -51.184216 0.000000 0.000000
						CHANNELS 6 Xposition Yposition Zposition Zrotation Xrotation Yrotation
						JOINT RightHand
						{
							OFFSET -47.569092 0.000000 0.000000
							CHANNELS 6 Xposition Yposition Zposition Zrotation Xrotation Yrotation
							End Site
							{
								OFFSET -27.245386 0.000000 0.000000
							}
						}
					}
				}
			}
		}
	}
	JOINT LeftUpLeg
	{
		OFFSET 18.163589 0.000000 0.000000
		CHANNELS 6 Xposition Yposition Zposition Zrotation Xrotation Yrotation
		JOINT LeftLeg
		{
			OFFSET 0.000000 0.000012 -76.389740
			CHANNELS 6 Xposition Yposition Zposition Zrotation Xrotation Yrotation
			JOINT LeftFoot
			{
				OFFSET 0.000000 0.000013 -80.086090
				CHANNELS 6 Xposition Yposition Zposition Zrotation Xrotation Yrotation
				JOINT LeftToeBase
				{
					OFFSET 0.000000 -27.245386 -11.806335
					CHANNELS 6 Xposition Yposition Zposition Zrotation Xrotation Yrotation
					End Site
					{
						OFFSET 0.000000 -7.265436 0.000000
					}
				}
			}
		}
	}
	JOINT RightUpLeg
	{
		OFFSET -18.163589 0.000000 0.000000
		CHANNELS 6 Xposition Yposition Zposition Zrotation Xrotation Yrotation
		JOINT RightLeg
		{
			OFFSET 0.000000 0.000012 -76.389740
			CHANNELS 6 Xposition Yposition Zposition Zrotation Xrotation Yrotation
			JOINT RightFoot
			{
				OFFSET 0.000000 0.000013 -80.086090
				CHANNELS 6 Xposition Yposition Zposition Zrotation Xrotation Yrotation
				JOINT RightToeBase
				{
					OFFSET 0.000000 -27.245386 -11.806335
					CHANNELS 6 Xposition Yposition Zposition Zrotation Xrotation Yrotation
					End Site
					{
						OFFSET 0.000000 -7.265436 0.000000
					}
				}
			}
		}
	}
}
MOTION
Frames: 4
Frame Time: 0.041667
223.111252 9.048987 160.880112 206.954786 -11.369044 3.764701 0.000002 -0.000002 14.894135 -2.256701 -12.630517 -5.174110 0.000005 -0.000009 40.644814 -0.405613 19.740963 -1.010180 -0.000008 -0.000009 44.277573 10.400904 11.030708 -7.589806 -0.000002 -3.632711 28.153540 11.660957 6.572725 11.639913 7.315348 0.960245 35.751858 -0.272344 -8.356076 -17.233105 26.103180 -0.000003 0.000000 -17.533442 -3.936491 25.359092 51.184204 -0.000005 0.000057 -20.720644 -10.245837 -14.585794 47.569096 0.000007 -0.000019 -1.363997 -12.928277 4.650812 -7.214443 0.960252 35.751873 -5.880614 -5.686436 16.077604 -26.103231 0.000005 0.000011 26.378442 19.339317 -21.156277 -51.184170 -0.000009 0.000032 80.731429 44.047548 48.117450 -47.569084 -0.000030 0.000033 5.249467 4.636217 26.857485 18.163595 -0.000001 0.000010 -15.870243 8.150918 8.219802 -0.000007 0.000008 -76.389771 169.861737 160.559005 -174.864154 -0.000002 0.000012 -80.086082 7.736790 -4.285606 -11.749724 0.000019 -27.245386 -11.806334 0.000000 -0.000001 0.000000 -18.163586 0.000006 0.000006 36.572494 -73.229279 31.821650 -0.000019 -0.000010 -76.389740 3.870374 67.200483 -58.560485 -0.000007 0.000010 -80.086090 -26.131844 3.063338 -5.151556 0.000005 -27.245398 -11.806347 0.000000 -0.000002 0.000000 
222.714752 9.240521 160.775192 207.719317 -11.116734 3.498783 0.000039 -0.000008 14.894160 -2.369507 -12.767638 -5.022881 0.000013 -0.000021 40.644802 -0.474636 19.574941 -0.856113 -0.000047 -0.000002 44.277512 10.390824 10.991770 -7.509370 -0.000011 -3.632702 28.153578 11.642043 6.621964 11.551768 7.315307 0.960240 35.751823 -0.259870 -8.329604 -17.208431 26.103199 0.000009 -0.000008 -17.619081 -3.951613 25.374631 51.184204 0.000003 -0.000004 -20.740027 -10.315352 -14.628144 47.569084 -0.000005 -0.000005 -1.316019 -13.005154 4.627802 -7.214456 0.960250 35.751808 -5.981447 -5.669305 16.091249 -26.103231 -0.000009 0.000029 26.222285 19.107603 -21.073662 -51.184200 -0.000016 0.000004 81.185548 44.030241 47.674013 -47.569088 -0.000004 -0.000000 5.217201 4.724475 26.824222 18.163633 -0.000009 0.000021 -16.012798 7.904008 8.439542 0.000015 0.000009 -76.389732 169.770021 160.514705 -174.771427 0.000021 0.000007 -80.086082 7.241110 -4.253002 -11.764871 0.000003 -27.245392 -11.806334 -0.000000 -0.000002 -0.000000 -18.163584 0.000003 0.000006 34.501123 -72.804851 29.584182 -0.000006 0.000004 -76.389732 2.397902 66.313446 -56.710542 0.000031 0.000010 -80.086090 -25.745170 3.383220 -5.626693 0.000002 -27.245375 -11.806334 0.000000 0.000001 0.000003 
222.307083 9.457503 160.667236 208.512425 -10.913187 3.253997 0.000004 0.000004 14.894132 -2.484026 -12.884532 -4.879492 -0.000008 -0.000003 40.644817 -0.544518 19.437767 -0.696561 -0.000049 -0.000000 44.277569 10.331892 11.029267 -7.484867 0.000034 -3.632771 28.153580 11.585534 6.554657 11.580359 7.315338 0.960239 35.751842 -0.283609 -8.277652 -17.229466 26.103220 -0.000006 0.000021 -17.650283 -4.133655 25.415504 51.184219 0.000003 -0.000023 -20.706053 -10.292771 -14.611421 47.569080 0.000007 0.000007 -1.339901 -12.976132 4.615042 -7.214428 0.960233 35.751865 -6.053469 -5.648755 16.069475 -26.103184 -0.000002 -0.000011 26.010808 18.906039 -20.976855 -51.184200 -0.000001 0.000019 81.586063 44.008736 47.297557 -47.569080 -0.000047 0.000023 5.254549 4.796387 26.822539 18.163588 0.000008 -0.000021 -15.988511 7.732624 8.668062 0.000015 0.000006 -76.389755 169.616943 160.424888 -174.779637 0.000003 0.000008 -80.086082 6.662111 -4.220028 -11.810709 0.000002 -27.245386 -11.806334 0.000000 -0.000001 -0.000000 -18.163578 0.000002 -0.000016 32.534356 -72.331184 27.434273 0.000021 0.000021 -76.389748 0.719769 65.585088 -54.602458 0.000005 0.000011 -80.086113 -25.237042 3.756365 -6.090239 -0.000001 -27.245371 -11.806334 0.000000 -0.000001 0.000000 
221.900742 9.656047 160.533752 209.282173 -10.693895 2.959217 0.000015 0.000000 14.894132 -2.554304 -12.989007 -4.677300 0.000016 -0.000003 40.644817 -0.598418 19.276542 -0.557232 -0.000024 -0.000011 44.277519 10.283251 11.025799 -7.459336 0.000003 -3.632731 28.153549 11.541256 6.510180 11.606581 7.315339 0.960240 35.751831 -0.352789 -8.266960 -17.217645 26.103201 0.000014 -0.000016 -17.641591 -4.263997 25.398234 51.184216 0.000003 0.000013 -20.672582 -10.255096 -14.550787 47.569099 -0.000012 0.000010 -1.340065 -12.923560 4.618204 -7.214422 0.960238 35.751827 -6.145782 -5.673275 16.075726 -26.103193 -0.000006 -0.000017 25.843189 18.758384 -20.950413 -51.184166 -0.000033 -0.000014 81.935004 44.014815 46.989632 -47.569069 0.000002 0.000013 5.202395 4.850983 26.812978 18.163599 0.000001 -0.000014 -16.057966 7.526203 8.904121 -0.000018 0.000007 -76.389748 169.806371 160.361299 -174.792587 0.000008 0.000008 -80.086082 5.832859 -4.180754 -11.907065 0.000021 -27.245390 -11.806335 0.000001 -0.000000 -0.000001 -18.163603 0.000008 -0.000008 30.833561 -71.852969 25.532967 0.000003 -0.000002 -76.389732 -0.576190 64.776326 -52.749872 -0.000008 0.000020 -80.086060 -24.784702 4.043130 -6.289108 0.000005 -27.245382 -11.806350 -0.000001 0.000003 -0.000003 
